<?xml version="1.0" encoding="utf-8"?>
<!-- Generator: Adobe Illustrator 16.0.0, SVG Export Plug-In . SVG Version: 6.00 Build 0)  -->
<!DOCTYPE svg PUBLIC "-//W3C//DTD SVG 1.1//EN" "http://www.w3.org/Graphics/SVG/1.1/DTD/svg11.dtd">
<svg version="1.1" id="Layer_1" xmlns="http://www.w3.org/2000/svg" xmlns:xlink="http://www.w3.org/1999/xlink" x="0px" y="0px"
	 width="325px" height="36.248px" viewBox="0 25.249 325 36.248" enable-background="new 0 25.249 325 36.248" xml:space="preserve"
	>
<g>
	<path fill="#FFFFFF" d="M25.002,43.411c0,1.236-0.213,2.365-0.642,3.387c-0.426,1.021-1.019,1.898-1.774,2.626
		c-0.758,0.728-1.659,1.29-2.704,1.688c-1.044,0.396-2.175,0.595-3.396,0.595s-2.35-0.198-3.387-0.595
		c-1.036-0.398-1.935-0.961-2.69-1.688c-0.759-0.728-1.35-1.604-1.777-2.626c-0.426-1.021-0.639-2.15-0.639-3.387
		c0-1.249,0.213-2.379,0.639-3.387c0.428-1.008,1.019-1.863,1.777-2.569c0.758-0.706,1.654-1.25,2.69-1.632
		c1.037-0.383,2.165-0.574,3.387-0.574s2.353,0.191,3.396,0.574c1.044,0.382,1.946,0.927,2.704,1.632
		c0.756,0.706,1.349,1.562,1.774,2.569C24.789,41.032,25.002,42.162,25.002,43.411z M20.965,43.411c0-0.676-0.112-1.309-0.332-1.896
		c-0.221-0.588-0.525-1.092-0.915-1.511s-0.859-0.75-1.412-0.993c-0.554-0.242-1.159-0.363-1.82-0.363s-1.265,0.121-1.81,0.363
		c-0.545,0.243-1.014,0.574-1.412,0.993s-0.702,0.922-0.915,1.511c-0.213,0.59-0.319,1.223-0.319,1.896
		c0,0.705,0.109,1.357,0.33,1.953s0.527,1.105,0.917,1.533c0.388,0.428,0.854,0.762,1.399,1.004s1.148,0.363,1.81,0.363
		s1.265-0.121,1.81-0.363c0.543-0.242,1.015-0.576,1.412-1.004c0.396-0.428,0.705-0.938,0.926-1.533
		C20.853,44.768,20.965,44.116,20.965,43.411z"/>
	<path fill="#FFFFFF" d="M43.201,46.743c0,0.854-0.17,1.57-0.507,2.15c-0.337,0.582-0.786,1.049-1.347,1.401
		c-0.557,0.353-1.193,0.604-1.909,0.761c-0.712,0.155-1.444,0.231-2.194,0.231h-6.221v-15.62h6.221c0.604,0,1.222,0.062,1.853,0.188
		c0.634,0.125,1.206,0.338,1.721,0.641c0.515,0.302,0.937,0.709,1.259,1.224c0.323,0.515,0.485,1.169,0.485,1.964
		c0,0.867-0.235,1.586-0.707,2.151c-0.469,0.565-1.087,0.976-1.853,1.224v0.045c0.441,0.073,0.856,0.209,1.246,0.407
		c0.391,0.198,0.729,0.452,1.015,0.761c0.287,0.311,0.515,0.67,0.685,1.082C43.119,45.764,43.201,46.229,43.201,46.743z
		 M38.924,40.19c0-0.529-0.203-0.916-0.608-1.158c-0.403-0.243-1.004-0.364-1.798-0.364h-1.854v3.22h2.03
		c0.705,0,1.253-0.143,1.644-0.43S38.924,40.749,38.924,40.19z M39.431,46.389c0-0.646-0.243-1.096-0.728-1.345
		c-0.486-0.251-1.134-0.375-1.941-0.375h-2.098v3.573h2.117c0.295,0,0.602-0.025,0.918-0.076c0.314-0.053,0.602-0.145,0.859-0.277
		c0.258-0.132,0.466-0.318,0.628-0.562C39.35,47.085,39.431,46.772,39.431,46.389z"/>
	<path fill="#FFFFFF" d="M57.478,39.727c-0.324-0.412-0.748-0.74-1.271-0.981c-0.521-0.243-1.023-0.365-1.51-0.365
		c-0.252,0-0.506,0.022-0.762,0.067c-0.259,0.043-0.488,0.127-0.695,0.252s-0.38,0.287-0.52,0.486
		c-0.139,0.198-0.208,0.453-0.208,0.762c0,0.265,0.053,0.486,0.164,0.662c0.108,0.178,0.271,0.332,0.485,0.463
		c0.211,0.134,0.465,0.254,0.762,0.365c0.294,0.109,0.623,0.224,0.992,0.342c0.529,0.177,1.082,0.371,1.654,0.584
		c0.573,0.215,1.096,0.496,1.566,0.851c0.472,0.353,0.863,0.79,1.169,1.312c0.31,0.522,0.464,1.174,0.464,1.953
		c0,0.896-0.164,1.672-0.497,2.328c-0.329,0.653-0.774,1.194-1.333,1.621c-0.561,0.426-1.199,0.742-1.921,0.949
		c-0.719,0.204-1.462,0.307-2.228,0.307c-1.118,0-2.197-0.195-3.242-0.584s-1.914-0.945-2.604-1.664l2.472-2.517
		c0.381,0.472,0.886,0.864,1.512,1.181c0.624,0.315,1.247,0.475,1.863,0.475c0.281,0,0.553-0.029,0.815-0.088
		c0.267-0.059,0.497-0.155,0.697-0.287c0.198-0.135,0.354-0.311,0.473-0.53c0.117-0.222,0.177-0.485,0.177-0.794
		c0-0.294-0.074-0.544-0.222-0.749c-0.147-0.206-0.354-0.396-0.628-0.562c-0.271-0.17-0.611-0.326-1.014-0.465
		c-0.406-0.14-0.864-0.291-1.379-0.451c-0.5-0.162-0.988-0.354-1.467-0.574c-0.479-0.221-0.906-0.504-1.281-0.85
		s-0.676-0.765-0.904-1.259c-0.229-0.491-0.342-1.093-0.342-1.798c0-0.867,0.177-1.609,0.529-2.229
		c0.354-0.617,0.815-1.125,1.392-1.521c0.573-0.396,1.22-0.688,1.94-0.872s1.448-0.274,2.184-0.274c0.885,0,1.785,0.162,2.704,0.485
		c0.918,0.323,1.724,0.802,2.416,1.433L57.478,39.727z"/>
	<path fill="#FFFFFF" d="M65.793,51.288v-15.62h10.502v3.177h-6.861v2.957h6.486v3.021h-6.486v3.242h7.26v3.223H65.793z"/>
	<path fill="#FFFFFF" d="M90.967,39.727c-0.322-0.412-0.745-0.74-1.268-0.981c-0.521-0.243-1.026-0.365-1.511-0.365
		c-0.251,0-0.505,0.022-0.763,0.067c-0.256,0.043-0.49,0.127-0.695,0.252c-0.206,0.125-0.377,0.287-0.518,0.486
		c-0.139,0.198-0.209,0.453-0.209,0.762c0,0.265,0.056,0.486,0.164,0.662c0.113,0.178,0.273,0.332,0.486,0.463
		c0.213,0.134,0.467,0.254,0.762,0.365c0.293,0.109,0.625,0.224,0.992,0.342c0.53,0.177,1.08,0.371,1.655,0.584
		c0.573,0.215,1.095,0.496,1.567,0.851c0.469,0.353,0.859,0.79,1.168,1.312c0.309,0.522,0.464,1.174,0.464,1.953
		c0,0.896-0.167,1.672-0.497,2.328c-0.332,0.653-0.775,1.194-1.336,1.621c-0.557,0.426-1.199,0.742-1.918,0.949
		c-0.721,0.204-1.463,0.307-2.229,0.307c-1.117,0-2.199-0.195-3.244-0.584s-1.912-0.945-2.604-1.664l2.473-2.517
		c0.383,0.472,0.887,0.864,1.51,1.181c0.627,0.315,1.248,0.475,1.867,0.475c0.278,0,0.549-0.029,0.815-0.088
		c0.263-0.059,0.497-0.155,0.694-0.287c0.199-0.135,0.357-0.311,0.475-0.53c0.119-0.222,0.178-0.485,0.178-0.794
		c0-0.294-0.074-0.544-0.222-0.749c-0.146-0.206-0.356-0.396-0.628-0.562c-0.273-0.17-0.611-0.326-1.016-0.465
		c-0.403-0.14-0.864-0.291-1.379-0.451c-0.5-0.162-0.988-0.354-1.465-0.574c-0.479-0.221-0.906-0.504-1.281-0.85
		s-0.676-0.765-0.904-1.259c-0.229-0.491-0.342-1.093-0.342-1.798c0-0.867,0.177-1.609,0.529-2.229
		c0.353-0.617,0.816-1.125,1.389-1.521c0.576-0.396,1.223-0.688,1.943-0.872c0.719-0.185,1.449-0.274,2.184-0.274
		c0.882,0,1.783,0.162,2.703,0.485s1.724,0.802,2.416,1.433L90.967,39.727z"/>
	<path fill="#FFFFFF" d="M107.537,39.727c-0.324-0.412-0.748-0.74-1.271-0.981c-0.522-0.243-1.024-0.365-1.511-0.365
		c-0.25,0-0.504,0.022-0.76,0.067c-0.26,0.043-0.489,0.127-0.695,0.252c-0.208,0.125-0.381,0.287-0.52,0.486
		c-0.139,0.198-0.207,0.453-0.207,0.762c0,0.265,0.053,0.486,0.164,0.662c0.109,0.178,0.271,0.332,0.484,0.463
		c0.213,0.134,0.466,0.254,0.763,0.365c0.294,0.109,0.624,0.224,0.991,0.342c0.53,0.177,1.082,0.371,1.655,0.584
		c0.573,0.215,1.095,0.496,1.565,0.851c0.471,0.353,0.862,0.79,1.17,1.312c0.309,0.522,0.463,1.174,0.463,1.953
		c0,0.896-0.164,1.672-0.498,2.328c-0.328,0.653-0.774,1.194-1.332,1.621c-0.561,0.426-1.199,0.742-1.922,0.949
		c-0.72,0.204-1.461,0.307-2.228,0.307c-1.118,0-2.198-0.195-3.242-0.584s-1.914-0.945-2.603-1.664l2.472-2.517
		c0.38,0.472,0.884,0.864,1.511,1.181c0.623,0.315,1.247,0.475,1.862,0.475c0.282,0,0.554-0.029,0.815-0.088
		c0.267-0.059,0.498-0.155,0.697-0.287c0.198-0.135,0.354-0.311,0.475-0.53c0.117-0.222,0.175-0.485,0.175-0.794
		c0-0.294-0.073-0.544-0.22-0.749c-0.147-0.206-0.354-0.396-0.629-0.562c-0.271-0.17-0.611-0.326-1.015-0.465
		c-0.405-0.14-0.864-0.291-1.379-0.451c-0.5-0.162-0.989-0.354-1.468-0.574s-0.905-0.504-1.28-0.85s-0.677-0.765-0.905-1.259
		c-0.229-0.491-0.343-1.093-0.343-1.798c0-0.867,0.179-1.609,0.53-2.229c0.355-0.617,0.816-1.125,1.391-1.521
		s1.221-0.688,1.942-0.872c0.72-0.185,1.446-0.274,2.182-0.274c0.886,0,1.785,0.162,2.704,0.485
		c0.918,0.323,1.725,0.802,2.416,1.433L107.537,39.727z"/>
	<path fill="#FFFFFF" d="M115.854,51.288v-15.62h10.501v3.177h-6.862v2.957h6.486v3.021h-6.486v3.242h7.26v3.223H115.854z"/>
	<path fill="#FFFFFF" d="M147.357,43.434c0,1.367-0.254,2.547-0.761,3.541c-0.507,0.992-1.177,1.81-2.008,2.448
		c-0.832,0.642-1.77,1.111-2.813,1.412c-1.044,0.302-2.101,0.452-3.176,0.452h-5.825v-15.62h5.647c1.104,0,2.193,0.129,3.268,0.388
		c1.072,0.256,2.027,0.682,2.867,1.277c0.839,0.596,1.516,1.395,2.029,2.395C147.102,40.727,147.357,41.962,147.357,43.434z
		 M143.432,43.434c0-0.884-0.143-1.615-0.432-2.195c-0.287-0.582-0.668-1.043-1.146-1.389c-0.479-0.347-1.024-0.593-1.632-0.74
		c-0.611-0.146-1.24-0.221-1.887-0.221h-1.875v9.135h1.787c0.678,0,1.326-0.076,1.953-0.231c0.625-0.155,1.176-0.408,1.655-0.763
		c0.476-0.352,0.859-0.823,1.146-1.411C143.289,45.03,143.432,44.303,143.432,43.434z"/>
	<path fill="#FFFFFF" d="M154.88,37.829h1.084l2.81,10.005h0.031l2.855-10.005h1.341l2.854,10.005h0.033l2.808-10.005h1.086
		l-3.286,11.298h-1.293l-2.855-10.054h-0.033l-2.855,10.054h-1.291L154.88,37.829z"/>
	<path fill="#FFFFFF" d="M172.929,37.829h1.054v11.298h-1.054V37.829z"/>
	<path fill="#FFFFFF" d="M181.098,38.787h-3.861v-0.958h8.776v0.958h-3.86v10.34h-1.054L181.098,38.787L181.098,38.787z"/>
	<path fill="#FFFFFF" d="M189.27,37.829h1.052v4.979h6.319v-4.979h1.054v11.298h-1.054v-5.362h-6.319v5.362h-1.052V37.829z"/>
	<path fill="#FFFFFF" d="M214.898,51.288l-3.392-6.2h-1.285v6.2h-3.683v-15.62h5.955c0.751,0,1.481,0.077,2.195,0.231
		c0.713,0.156,1.354,0.416,1.919,0.783c0.565,0.367,1.021,0.854,1.356,1.457c0.34,0.602,0.51,1.352,0.51,2.248
		c0,1.061-0.289,1.949-0.862,2.672c-0.571,0.721-1.368,1.234-2.382,1.543l4.08,6.686H214.898L214.898,51.288z M214.746,40.456
		c0-0.368-0.077-0.666-0.231-0.895c-0.157-0.228-0.355-0.404-0.601-0.529c-0.244-0.125-0.519-0.211-0.818-0.254
		c-0.305-0.043-0.597-0.066-0.877-0.066h-2.017v3.641h1.794c0.311,0,0.631-0.024,0.953-0.076c0.324-0.053,0.621-0.144,0.888-0.276
		c0.267-0.132,0.484-0.323,0.654-0.573C214.66,41.175,214.746,40.852,214.746,40.456z"/>
	<path fill="#FFFFFF" d="M224.695,51.288v-15.62h10.501v3.177h-6.86v2.957h6.485v3.021h-6.485v3.242h7.26v3.223H224.695z"/>
	<path fill="#FFFFFF" d="M252.209,51.288l-1.215-3.066h-6.046l-1.146,3.066h-4.104l6.553-15.62h3.662l6.486,15.62H252.209z
		 M248.016,39.836l-1.985,5.361h3.929L248.016,39.836z"/>
	<path fill="#FFFFFF" d="M261.231,51.288v-15.62h3.795V48h6.045v3.287H261.231z"/>
	<path fill="#FFFFFF" d="M276.366,51.288v-15.62h3.794v15.62H276.366z"/>
	<path fill="#FFFFFF" d="M293.596,38.889v12.398h-3.771V38.889h-4.414v-3.222h12.6v3.222H293.596z"/>
	<path fill="#FFFFFF" d="M310.584,44.669v6.618h-3.771v-6.618l-5.867-9.002h4.563l3.334,5.78l3.331-5.78h4.412L310.584,44.669z"/>
</g>
</svg>
